<svg width="111" height="117" viewBox="0 0 111 117" fill="none" xmlns="http://www.w3.org/2000/svg">
<g clip-path="url(#clip0_42_95)">
<path d="M72.9504 91.5483L71.3656 94.947C69.6223 98.6855 65.4771 100.476 62.1539 98.9268L19.8596 79.2047C16.5062 77.641 15.2438 73.3284 16.9871 69.5899L39.1746 22.0087C40.9179 18.2702 45.033 16.4652 48.3863 18.0289L90.6807 37.7511C94.0038 39.3007 95.2964 43.6273 93.5531 47.3658L91.9683 50.7645L64.779 38.0859C61.4257 36.5222 57.3106 38.3273 55.5673 42.0658L42.8888 69.255C41.1455 72.9935 42.4079 77.3061 45.7612 78.8698L72.9504 91.5483ZM48.9308 72.0725L79.1411 86.1598L91.8196 58.9705L61.6094 44.8832L48.9308 72.0725ZM64.977 69.2108C62.4695 68.0415 61.5073 64.8206 62.8227 61.9997C64.1381 59.1788 67.224 57.8455 69.7314 59.0148C72.2389 60.184 73.2011 63.405 71.8857 66.2259C70.5703 69.0467 67.4844 70.38 64.977 69.2108Z" fill="#95C7F9"/>
</g>
<defs>
<clipPath id="clip0_42_95">
<rect width="80" height="90" fill="white" transform="translate(38.0356 0.789062) rotate(25)"/>
</clipPath>
</defs>
</svg>
