<svg width="112" height="116" viewBox="0 0 112 116" fill="none" xmlns="http://www.w3.org/2000/svg">
<path d="M71.4994 71.4514C69.5808 72.2532 67.9207 73.9203 67.1036 76.146C65.6639 79.9434 67.4027 84.0229 70.6654 85.5443L76.4053 88.2209L74.5194 92.2653C71.2388 99.3005 63.4549 102.664 57.2014 99.7475L26.6588 85.5053C28.0074 85.0583 29.3302 84.3511 30.5352 83.4234C32.6038 81.9054 34.3635 79.7882 35.5521 77.2392C39.0545 69.7282 36.4837 61.123 29.8073 58.0097C26.9675 56.6855 23.8162 56.5815 20.86 57.4787L27.7857 42.6266C31.0663 35.5914 38.8501 32.2284 45.1037 35.1445L79.7851 51.3167C86.0386 54.2327 88.4658 62.3572 85.1852 69.3925L82.903 74.2865L76.8006 71.4409C75.1088 70.652 73.2194 70.6812 71.4994 71.4514Z" stroke="#95C7F9" stroke-width="5" stroke-linecap="round" stroke-linejoin="round"/>
<path d="M26.3595 45.6854L33.602 30.1538C35.4879 26.1094 39.3733 23.535 43.3922 23.6713L72.1336 24.6606C76.6246 24.8101 79.1845 29.8105 77.0767 34.3308L71.0544 47.2456" stroke="#95C7F9" stroke-width="5" stroke-linecap="round" stroke-linejoin="round"/>
<path d="M84.4852 79.2452L81.2204 86.2467C80.3487 88.1159 78.3064 89.0253 76.5829 88.3044L70.6617 85.5433C67.399 84.0219 65.6602 79.9423 67.0999 76.145C67.9171 73.9193 69.5771 72.2522 71.4957 71.4504C73.2158 70.6801 75.1051 70.651 76.7969 71.4399L83.0806 74.37C84.7407 75.2269 85.3568 77.376 84.4852 79.2452Z" stroke="#95C7F9" stroke-width="5" stroke-linecap="round" stroke-linejoin="round"/>
<path d="M40.604 50.6313L61.7512 60.4924" stroke="#95C7F9" stroke-width="5" stroke-linecap="round" stroke-linejoin="round"/>
<path d="M35.5521 77.2394C34.3635 79.7884 32.6038 81.9056 30.5352 83.4236C29.3302 84.3513 28.0074 85.0585 26.6588 85.5055C23.5457 86.6605 20.1799 86.622 17.1287 85.1991C12.718 83.1424 10.1175 78.7024 9.87135 73.7879C9.70446 71.2275 10.1953 68.5186 11.3839 65.9696C13.3807 61.6873 16.9238 58.6639 20.86 57.4789C23.8162 56.5817 26.9675 56.6857 29.8072 58.0099C36.4837 61.1232 39.0545 69.7284 35.5521 77.2394Z" stroke="#95C7F9" stroke-width="5" stroke-miterlimit="10" stroke-linecap="round" stroke-linejoin="round"/>
<path d="M18.7604 69.4073L20.1822 74.1665L29.7391 70.4719" stroke="#95C7F9" stroke-width="5" stroke-linecap="round" stroke-linejoin="round"/>
</svg>
