<svg width="24" height="25" viewBox="0 0 24 25" fill="none" xmlns="http://www.w3.org/2000/svg">
<rect width="24" height="24" transform="translate(0 0.0830078)" fill="white"/>
<path d="M17 12.083C17 12.6353 17.4477 13.083 18 13.083C18.5523 13.083 19 12.6353 19 12.083C19 11.5307 18.5523 11.083 18 11.083C17.4477 11.083 17 11.5307 17 12.083Z" stroke="#000781" stroke-width="2" stroke-linecap="round" stroke-linejoin="round"/>
<path d="M11 12.083C11 12.6353 11.4477 13.083 12 13.083C12.5523 13.083 13 12.6353 13 12.083C13 11.5307 12.5523 11.083 12 11.083C11.4477 11.083 11 11.5307 11 12.083Z" stroke="#000781" stroke-width="2" stroke-linecap="round" stroke-linejoin="round"/>
<path d="M5 12.083C5 12.6353 5.44772 13.083 6 13.083C6.55228 13.083 7 12.6353 7 12.083C7 11.5307 6.55228 11.083 6 11.083C5.44772 11.083 5 11.5307 5 12.083Z" stroke="#000781" stroke-width="2" stroke-linecap="round" stroke-linejoin="round"/>
</svg>
