<svg width="28" height="29" viewBox="0 0 28 29" fill="none" xmlns="http://www.w3.org/2000/svg">
<rect y="0.5" width="28" height="28" rx="7" fill="#F4F7FE"/>
<path d="M9.12 11.86H9.28C9.896 11.86 10.4 12.364 10.4 12.98V18.58C10.4 19.196 9.896 19.7 9.28 19.7H9.12C8.504 19.7 8 19.196 8 18.58V12.98C8 12.364 8.504 11.86 9.12 11.86ZM13.6 8.5C14.216 8.5 14.72 9.004 14.72 9.62V18.58C14.72 19.196 14.216 19.7 13.6 19.7C12.984 19.7 12.48 19.196 12.48 18.58V9.62C12.48 9.004 12.984 8.5 13.6 8.5ZM18.08 14.9C18.696 14.9 19.2 15.404 19.2 16.02V18.58C19.2 19.196 18.696 19.7 18.08 19.7C17.464 19.7 16.96 19.196 16.96 18.58V16.02C16.96 15.404 17.464 14.9 18.08 14.9Z" fill="black"/>
</svg>
