<svg width="116" height="114" viewBox="0 0 116 114" fill="none" xmlns="http://www.w3.org/2000/svg">
<path d="M73.7759 70.3477C71.7892 71.1156 70.0312 72.7341 69.1094 74.9078C67.4904 78.6161 69.0981 82.6305 72.3608 84.152L78.1008 86.8285L76.0173 90.7748C72.3931 97.6393 64.3286 100.863 58.0751 97.9469L23.3937 81.7747C17.1402 78.8587 14.9936 70.8735 18.6178 64.009L30.4008 41.6911C34.025 34.8266 42.0894 31.6029 48.3429 34.519L83.0243 50.6912C89.2778 53.6072 91.4245 61.5924 87.8003 68.4569L85.2791 73.2322L79.1766 70.3866C77.4848 69.5977 75.559 69.6087 73.7759 70.3477Z" stroke="#95C7F9" stroke-width="5" stroke-linecap="round" stroke-linejoin="round"/>
<path d="M28.8255 44.6755L36.8266 29.5207C38.9101 25.5744 42.9714 23.0875 47.0601 23.2584L76.2995 24.4951C80.8685 24.6833 83.2756 29.6079 80.947 34.0184L74.2939 46.6199" stroke="#95C7F9" stroke-width="5" stroke-linecap="round" stroke-linejoin="round"/>
<path d="M86.6914 78.1069L83.0846 84.9385C82.1216 86.7624 80.0046 87.6347 78.2778 86.9121L72.3566 84.151C69.0939 82.6296 67.4862 78.6152 69.1052 74.9069C70.027 72.7332 71.785 71.1147 73.7717 70.3467C75.5548 69.6078 77.4806 69.5968 79.1724 70.3857L85.4561 73.3158C87.1129 74.171 87.6543 76.283 86.6914 78.1069Z" stroke="#95C7F9" stroke-width="1.5" stroke-linecap="round" stroke-linejoin="round"/>
<path d="M43.1377 49.6553L64.2849 59.5164" stroke="#95C7F9" stroke-width="1.5" stroke-linecap="round" stroke-linejoin="round"/>
</svg>
