<svg width="40" height="41" viewBox="0 0 40 41" fill="none" xmlns="http://www.w3.org/2000/svg">
<rect x="0.5" y="1" width="39" height="39" rx="7.5" fill="white" stroke="#D9D9D9"/>
<rect width="24" height="24" transform="translate(8 9)" fill="white"/>
<path d="M20.0201 11.9102C16.7101 11.9102 14.0201 14.6002 14.0201 17.9102V20.8002C14.0201 21.4102 13.7601 22.3402 13.4501 22.8602L12.3001 24.7702C11.5901 25.9502 12.0801 27.2602 13.3801 27.7002C17.6901 29.1402 22.3401 29.1402 26.6501 27.7002C27.8601 27.3002 28.3901 25.8702 27.7301 24.7702L26.5801 22.8602C26.2801 22.3402 26.0201 21.4102 26.0201 20.8002V17.9102C26.0201 14.6102 23.3201 11.9102 20.0201 11.9102Z" stroke="#000781" stroke-width="1.5" stroke-miterlimit="10" stroke-linecap="round"/>
<path d="M21.8699 12.1999C21.5599 12.1099 21.2399 12.0399 20.9099 11.9999C19.9499 11.8799 19.0299 11.9499 18.1699 12.1999C18.4599 11.4599 19.1799 10.9399 20.0199 10.9399C20.8599 10.9399 21.5799 11.4599 21.8699 12.1999Z" stroke="#000781" stroke-width="1.5" stroke-miterlimit="10" stroke-linecap="round" stroke-linejoin="round"/>
<path d="M23.02 28.0601C23.02 29.7101 21.67 31.0601 20.02 31.0601C19.2 31.0601 18.44 30.7201 17.9 30.1801C17.36 29.6401 17.02 28.8801 17.02 28.0601" stroke="#000781" stroke-width="1.5" stroke-miterlimit="10"/>
<rect x="28" y="9" width="4" height="4" rx="2" fill="#FF0000"/>
</svg>
