<svg width="111" height="116" viewBox="0 0 111 116" fill="none" xmlns="http://www.w3.org/2000/svg">
<g clip-path="url(#clip0_42_104)">
<path d="M82.7566 53.9551L64.3332 61.9148L73.3963 66.141C68.1506 77.3906 55.7608 82.7435 45.7612 78.0806C42.71 76.6578 40.206 74.4557 38.4117 71.7571L31.6872 74.6624C34.1669 79.0461 37.8486 82.6662 42.5916 84.8779C55.9445 91.1045 72.4335 83.9805 79.4384 68.9585L88.5014 73.1847L82.7566 53.9551ZM37.144 49.2363C42.3897 37.9867 54.7795 32.6338 64.7791 37.2967C67.8303 38.7195 70.3343 40.9216 72.1286 43.6202L78.8531 40.7149C76.3734 36.3312 72.6917 32.7111 67.9487 30.4994C54.5958 24.2728 38.1068 31.3968 31.1019 46.4188L22.0389 42.1927L27.7837 61.4222L46.2071 53.4625L37.144 49.2363Z" fill="#95C7F9"/>
</g>
<defs>
<clipPath id="clip0_42_104">
<rect width="80" height="90" fill="white" transform="translate(38.0356) rotate(25)"/>
</clipPath>
</defs>
</svg>
