<svg width="111" height="116" viewBox="0 0 111 116" fill="none" xmlns="http://www.w3.org/2000/svg">
<path d="M51.4675 85.0878L53.6506 92.395L67.6523 86.3457" stroke="#95C7F9" stroke-width="5" stroke-linecap="round" stroke-linejoin="round"/>
<path d="M57.5438 54.074C57.2576 53.8992 56.8951 53.7301 56.5469 53.6091C49.4836 49.9845 46.8643 40.6946 50.6679 32.5378C54.5205 24.197 63.6861 20.2371 71.0876 23.6885C78.4891 27.1399 81.3472 36.7065 77.4644 45.0332C73.6608 53.19 64.8305 57.1408 57.5438 54.074Z" stroke="#95C7F9" stroke-width="5" stroke-linecap="round" stroke-linejoin="round"/>
<path d="M39.6925 91.0162C34.1942 88.4524 29.4552 84.3392 26.7442 79.2684C22.0007 70.3534 26.1846 61.381 36.0471 59.3183C47.271 56.9387 60.8958 63.2921 66.2876 73.4196" stroke="#95C7F9" stroke-width="5" stroke-linecap="round" stroke-linejoin="round"/>
</svg>
