<svg width="79" height="83" viewBox="0 0 79 83" fill="none" xmlns="http://www.w3.org/2000/svg">
<path d="M56.9504 74.5483L55.3656 77.947C53.6223 81.6855 49.4771 83.4764 46.1539 81.9268L3.85956 62.2047C0.506218 60.641 -0.756158 56.3284 0.987142 52.5899L23.1746 5.00873C24.9179 1.27021 29.033 -0.534807 32.3863 1.02888L74.6807 20.7511C78.0038 22.3007 79.2964 26.6273 77.5531 30.3658L75.9683 33.7645L48.779 21.0859C45.4257 19.5222 41.3106 21.3273 39.5673 25.0658L26.8888 52.255C25.1455 55.9935 26.4079 60.3061 29.7612 61.8698L56.9504 74.5483ZM32.9308 55.0725L63.1411 69.1598L75.8196 41.9705L45.6094 27.8832L32.9308 55.0725ZM48.977 52.2108C46.4695 51.0415 45.5073 47.8206 46.8227 44.9997C48.1381 42.1788 51.224 40.8455 53.7314 42.0148C56.2389 43.184 57.2011 46.405 55.8857 49.2259C54.5703 52.0467 51.4844 53.38 48.977 52.2108Z" fill="#95C7F9"/>
</svg>
